# xmcd CD database file
# Copyright (C) 1993-1998 Ti Kan
# 
# Track frame offsets:
#     150
#     16815
#     34742
#     50620
#     65007
# 
# Disc length: 1081 seconds
# 
# Revision: 1
# Processed by: cddbd v1.4b41PL1 Copyright (c) Steve Scherf et al.
# Submitted via: DiscPlay 4.0.4
# 
DISCID=3c043705
DTITLE=Michelle Wright - Chevy Thunder Tour '97
DYEAR=1900
DGENRE=
TTITLE0=The Answer Is Yes
TTITLE1=Take It Like A Man
TTITLE2=Safe In The Arms Of Love
TTITLE3=I'm Not Afraid
TTITLE4=Guitar Talk
EXTD=
EXTT0=\n
EXTT1=
EXTT2=
EXTT3=
EXTT4=
PLAYORDER=
